<svg width="64" height="64" viewBox="0 0 64 64" fill="none" xmlns="http://www.w3.org/2000/svg">
<g clip-path="url(#clip0_366_1528)">
<path d="M55.0973 34.5693V50.8711H31.4453V53.1999H59.2712V34.5693H55.0973Z" fill="#A3E635"/>
<path d="M58.7125 52.7339H5.84343V38.0623L0 32.7061H58.7125V52.7339ZM7.37385 51.3366H56.9039V34.1033H3.75649L7.51298 37.5966V51.3366H7.37385Z" fill="#0F172A"/>
<path d="M10.0156 35.9658V49.5894H13.633V48.7743C13.633 46.562 15.8591 44.6989 18.5025 44.6989C21.146 44.6989 23.372 46.562 23.372 48.7743V49.5894H26.4329V35.9658H10.0156ZM18.3634 43.8838C16.4156 43.8838 14.8851 42.4865 14.8851 40.8563C14.8851 39.2262 16.5547 37.9453 18.5025 37.9453C20.4503 37.9453 21.9807 39.3426 21.9807 40.9728C21.9807 42.603 20.3112 43.8838 18.3634 43.8838Z" fill="#A3E635"/>
<path d="M18.3677 44.5831C17.1155 44.5831 16.0025 44.2338 15.3069 43.5351C14.4721 42.8365 14.0547 41.905 14.0547 40.9734C14.0547 38.9939 16.0025 37.3638 18.3677 37.3638C19.4807 37.3638 20.5938 37.7131 21.4285 38.4117C22.2633 39.1104 22.6807 40.0419 22.6807 40.9734C22.8198 42.9529 20.7329 44.5831 18.3677 44.5831ZM18.3677 38.6446C16.8373 38.6446 15.7242 39.6926 15.7242 40.857C15.7242 41.4392 16.0025 42.0214 16.559 42.4872C17.1155 42.9529 17.672 43.1858 18.5068 43.1858C20.0372 43.1858 21.1503 42.1379 21.1503 40.9734C21.1503 40.3912 20.872 39.809 20.3155 39.3433C19.8981 38.8775 19.2025 38.6446 18.3677 38.6446Z" fill="#0F172A"/>
<path d="M22.3968 49.5896V48.7745C22.3968 47.843 21.9794 47.0279 21.2838 46.3293C20.5881 45.6306 19.4751 45.2813 18.5012 45.2813C17.3881 45.2813 16.4142 45.6306 15.7186 46.2128C14.8838 46.795 14.4664 47.7266 14.4664 48.5417V49.3567H12.7969V48.5417C12.7969 47.2608 13.4925 46.0964 14.4664 45.1649C15.4403 44.2333 16.9708 43.7676 18.5012 43.7676C20.0316 43.7676 21.4229 44.3498 22.5359 45.1649C23.649 46.0964 24.2055 47.2608 24.2055 48.5417V49.2403L22.3968 49.5896Z" fill="#0F172A"/>
<path d="M50.9227 38.0625H45.9141V39.4598H50.9227V38.0625Z" fill="#0F172A"/>
<path d="M42.5753 38.0625H32.1406V39.4598H42.5753V38.0625Z" fill="#0F172A"/>
<path d="M50.9231 42.021H32.1406V43.4183H50.9231V42.021Z" fill="#0F172A"/>
<path d="M50.7829 46.0962H40.7656V47.4935H50.7829V46.0962Z" fill="#0F172A"/>
<path d="M37.5667 46.0967H32.1406V47.494H37.5667V46.0967Z" fill="#0F172A"/>
<path d="M58.8523 26.1855V11.8633H54.6784V23.8567L59.4088 28.165H31.3047V30.4938H63.5827L58.8523 26.1855Z" fill="#A3E635"/>
<path d="M64.0016 30.0279H5.28906V10H58.1582V24.6716L64.0016 30.0279ZM6.95861 28.6306H60.2451L56.4886 25.1373V11.3973H6.95861V28.6306Z" fill="#0F172A"/>
<path d="M35.7578 13.2598V26.9998H39.3752V26.1847C39.3752 23.9723 41.6012 22.1093 44.2447 22.1093C46.8882 22.1093 49.1142 23.9723 49.1142 26.1847V26.9998H52.1751V13.2598H35.7578ZM44.1056 21.1778C42.1578 21.1778 40.6273 19.7805 40.6273 18.1503C40.6273 16.5201 42.2969 15.2393 44.2447 15.2393C46.1925 15.2393 47.7229 16.6366 47.7229 18.2667C47.7229 19.8969 46.0534 21.1778 44.1056 21.1778Z" fill="#A3E635"/>
<path d="M44.1099 21.8771C42.8577 21.8771 41.7447 21.5277 41.049 20.8291C40.3534 20.1304 39.7969 19.1989 39.7969 18.2674C39.7969 17.3359 40.2143 16.4043 41.049 15.7057C41.8838 15.007 42.9968 14.6577 44.1099 14.6577C46.4751 14.6577 48.4229 16.2879 48.4229 18.3838C48.4229 20.2469 46.4751 21.8771 44.1099 21.8771ZM44.1099 16.055C43.4142 16.055 42.7186 16.2879 42.1621 16.7537C41.6056 17.2194 41.3273 17.6852 41.3273 18.3838C41.3273 18.966 41.6056 19.5482 42.1621 20.014C42.7186 20.4798 43.2751 20.7126 44.1099 20.7126C45.6403 20.7126 46.7533 19.6647 46.7533 18.5003C46.8925 16.9865 45.6403 16.055 44.1099 16.055Z" fill="#0F172A"/>
<path d="M49.8085 27.0003H48.139V26.1852C48.139 25.2537 47.7216 24.4386 47.0259 23.74C46.3303 23.0413 45.2173 22.692 44.2434 22.692C43.1303 22.692 42.1564 23.0413 41.4608 23.6235C40.626 24.2057 40.2086 25.1372 40.2086 25.9523V27.0003H38.5391V26.1852C38.5391 24.9044 39.2347 23.74 40.2086 22.8084C41.3216 21.8769 42.7129 21.4111 44.2434 21.4111C45.7738 21.4111 47.1651 21.9933 48.2781 22.8084C49.3911 23.74 49.9477 24.9044 49.9477 26.1852V27.0003H49.8085Z" fill="#0F172A"/>
<path d="M31.3055 15.4727H26.2969V16.8699H31.3055V15.4727Z" fill="#0F172A"/>
<path d="M22.9581 15.4727H12.5234V16.8699H22.9581V15.4727Z" fill="#0F172A"/>
<path d="M31.3059 19.4316H12.5234V20.8289H31.3059V19.4316Z" fill="#0F172A"/>
<path d="M31.3064 23.3911H21.2891V24.7884H31.3064V23.3911Z" fill="#0F172A"/>
<path d="M17.9495 23.3906H12.5234V24.7879H17.9495V23.3906Z" fill="#0F172A"/>
</g>
<defs>
<clipPath id="clip0_366_1528">
<rect width="64" height="64" fill="white"/>
</clipPath>
</defs>
</svg>
