<svg width="589" height="347" viewBox="0 0 589 347" fill="none" xmlns="http://www.w3.org/2000/svg">
<path d="M333.635 32.164C417.693 -24.8119 532.024 -2.85748 589 81.2006V81.2006L200.736 344.372C199.281 345.359 197.301 344.978 196.315 343.523L96.7228 196.592C95.7365 195.137 96.1165 193.158 97.5717 192.172L333.635 32.164Z" fill="#FDE14A"/>
<path d="M336.474 30.2292V30.2292C393.45 114.287 371.496 228.618 287.437 285.594L202.118 343.425C200.806 344.314 199.022 343.971 198.132 342.66L98.3643 195.469C97.378 194.014 97.7581 192.035 99.2132 191.048L336.474 30.2292Z" fill="#A7E737"/>
<path d="M1.06814 91.9387C0.479167 91.172 0.626318 90.0725 1.39618 89.4877L11.321 81.9485C83.1 27.4231 185.578 41.9532 239.371 114.283V114.283C294.287 188.123 276.766 292.819 200.801 344.756L198.473 346.348C197.751 346.842 196.769 346.685 196.236 345.992L1.06814 91.9387Z" fill="#82CB13"/>
</svg>
