<svg width="64" height="64" viewBox="0 0 64 64" fill="none" xmlns="http://www.w3.org/2000/svg">
<g clip-path="url(#clip0_366_1518)">
<g clip-path="url(#clip1_366_1518)">
<path d="M41.6312 36.5035C41.6312 50.2564 21.0089 45.7479 21.0089 45.7479C21.0089 45.7479 0.386719 50.2493 0.386719 36.5035C0.386719 22.7577 20.2978 0.236816 21.0089 0.236816C21.7201 0.236816 41.6312 22.7577 41.6312 36.5035Z" fill="#A3E635"/>
<path d="M63.859 50.932C63.859 58.6405 52.2892 56.116 52.2892 56.116C52.2892 56.116 40.7266 58.6405 40.7266 50.932C40.7266 43.2236 51.891 30.5942 52.2892 30.5942C52.6874 30.5942 63.859 43.2236 63.859 50.932Z" fill="#A3E635"/>
<path d="M27.8847 20.731C27.9781 20.7254 28.0695 20.7014 28.1536 20.6605C28.2377 20.6196 28.313 20.5625 28.375 20.4925C28.4371 20.4225 28.4848 20.341 28.5153 20.2526C28.5459 20.1641 28.5588 20.0706 28.5531 19.9772C28.5475 19.8838 28.5236 19.7924 28.4827 19.7083C28.4418 19.6242 28.3847 19.5489 28.3147 19.4869C28.2447 19.4248 28.1632 19.3771 28.0747 19.3465C27.9863 19.316 27.8928 19.3031 27.7994 19.3087C26.9219 19.3619 26.1013 19.7607 25.5175 20.4179C24.9336 21.0751 24.6342 21.9369 24.6847 22.8145C24.7479 23.8233 25.1922 24.7703 25.9278 25.4635C26.6633 26.1568 27.6349 26.5444 28.6456 26.5479H28.8803C29.5074 26.511 30.121 26.3507 30.686 26.0761C31.251 25.8016 31.7562 25.4181 32.1727 24.9479C32.5932 24.4809 32.9161 23.9347 33.1225 23.3412C33.3289 22.7477 33.4146 22.1189 33.3745 21.4919C33.2845 19.9623 32.5933 18.5304 31.4516 17.5086C30.3099 16.4868 28.8104 15.958 27.2803 16.0376C25.9637 16.1407 24.6976 16.5896 23.6101 17.3387C22.5225 18.0879 21.652 19.1109 21.0865 20.3043C20.4918 19.1114 19.5995 18.092 18.4959 17.3446C17.3922 16.5972 16.1145 16.1471 14.786 16.0376C13.25 15.9483 11.7413 16.4727 10.5918 17.4955C9.44226 18.5183 8.74606 19.9558 8.65626 21.4919C8.58216 22.7524 9.0092 23.9911 9.84435 24.9381C10.6795 25.8851 11.8551 26.4637 13.1149 26.5479H13.3496C14.3628 26.548 15.3379 26.162 16.0765 25.4684C16.815 24.7748 17.2614 23.8257 17.3247 22.8145C17.3752 21.9358 17.0748 21.0729 16.4894 20.4155C15.904 19.7582 15.0816 19.3601 14.2029 19.3087C14.0154 19.299 13.8317 19.3639 13.6918 19.4891C13.552 19.6143 13.4673 19.7898 13.4563 19.9772C13.4505 20.0706 13.4632 20.1643 13.4937 20.2527C13.5242 20.3412 13.5719 20.4228 13.634 20.4929C13.6961 20.5629 13.7714 20.62 13.8556 20.6608C13.9398 20.7017 14.0313 20.7255 14.1247 20.731C14.6247 20.7621 15.0921 20.9896 15.4251 21.3639C15.7581 21.7382 15.9297 22.229 15.9025 22.7292C15.8604 23.406 15.5515 24.0385 15.0435 24.4878C14.5355 24.9371 13.8701 25.1665 13.1931 25.1256C12.7524 25.1021 12.3209 24.9905 11.924 24.7975C11.5271 24.6046 11.1728 24.3341 10.882 24.0021C10.5875 23.6726 10.3611 23.2881 10.2159 22.8707C10.0706 22.4533 10.0094 22.0112 10.0358 21.5701C10.1054 20.4114 10.6321 19.3278 11.5 18.5571C12.368 17.7865 13.5064 17.3918 14.6651 17.4599C16.2286 17.572 17.6896 18.2796 18.7469 19.4367C19.6789 20.4131 20.2442 21.682 20.3469 23.0279C20.3469 23.1416 20.3469 23.2554 20.3469 23.3692V32.9479C20.1759 32.7116 19.9907 32.486 19.7923 32.2723C18.4838 30.8395 16.6781 29.9595 14.7434 29.8119C13.9826 29.7667 13.2203 29.872 12.5003 30.1217C11.7802 30.3715 11.1165 30.7609 10.5471 31.2675C9.97777 31.7741 9.51391 32.3881 9.18212 33.0742C8.85034 33.7603 8.65714 34.5052 8.61359 35.2661C8.53975 36.5324 8.97162 37.7762 9.81432 38.7242C10.657 39.6722 11.8416 40.247 13.1078 40.3221H13.3425C14.3523 40.3245 15.3253 39.9433 16.0647 39.2554C16.804 38.5676 17.2544 37.6245 17.3247 36.6172C17.3752 35.7384 17.0748 34.8756 16.4894 34.2182C15.904 33.5608 15.0816 33.1627 14.2029 33.1114C14.0154 33.1017 13.8317 33.1665 13.6918 33.2917C13.552 33.417 13.4673 33.5924 13.4563 33.7799C13.4505 33.8733 13.4632 33.9669 13.4937 34.0554C13.5242 34.1439 13.5719 34.2255 13.634 34.2955C13.6961 34.3656 13.7714 34.4226 13.8556 34.4635C13.9398 34.5044 14.0313 34.5282 14.1247 34.5336C14.3728 34.5474 14.6156 34.6105 14.8391 34.7191C15.0625 34.8278 15.262 34.9799 15.426 35.1665C15.7605 35.5427 15.9319 36.0364 15.9025 36.539C15.8604 37.2126 15.5532 37.8422 15.0481 38.2899C14.543 38.7377 13.8812 38.9672 13.2074 38.9283C12.3173 38.8752 11.4847 38.4708 10.8927 37.8041C10.3006 37.1374 9.99756 36.2628 10.05 35.3727C10.1215 34.2142 10.6484 33.131 11.5158 32.3596C12.3831 31.5882 13.5204 31.1912 14.6794 31.2554C16.243 31.3804 17.6989 32.1008 18.7469 33.2679C19.6715 34.235 20.2362 35.49 20.3469 36.8234C20.3469 36.9372 20.3469 37.051 20.3469 37.1647V63.0278C20.3469 63.2164 20.4218 63.3973 20.5552 63.5307C20.6886 63.664 20.8694 63.739 21.058 63.739C21.2466 63.739 21.4275 63.664 21.5609 63.5307C21.6942 63.3973 21.7691 63.2164 21.7691 63.0278V37.1363C21.7691 37.0367 21.7691 36.9443 21.7691 36.8447C21.882 35.4078 22.5016 34.0577 23.5176 33.0352C24.5335 32.0128 25.8796 31.3845 27.3158 31.2625C28.4764 31.1945 29.6166 31.5899 30.4859 32.3619C31.3553 33.1339 31.8826 34.2193 31.9523 35.3799C31.9782 35.8212 31.9169 36.2633 31.7719 36.6809C31.6269 37.0985 31.401 37.4834 31.1071 37.8136C30.8132 38.1438 30.4571 38.4129 30.0591 38.6054C29.6611 38.7978 29.2291 38.91 28.7878 38.9354C28.1152 38.9724 27.4552 38.742 26.9517 38.2944C26.4481 37.8469 26.142 37.2184 26.0998 36.5461C26.0706 36.0446 26.2413 35.5521 26.5745 35.1762C26.9077 34.8004 27.3763 34.5719 27.8776 34.5407C27.971 34.5351 28.0623 34.5112 28.1465 34.4703C28.2306 34.4294 28.3059 34.3723 28.3679 34.3023C28.43 34.2323 28.4777 34.1508 28.5082 34.0623C28.5388 33.9739 28.5516 33.8804 28.546 33.787C28.5404 33.6936 28.5165 33.6022 28.4756 33.5181C28.4347 33.434 28.3776 33.3587 28.3076 33.2966C28.2376 33.2346 28.1561 33.1869 28.0676 33.1563C27.9792 33.1258 27.8856 33.1129 27.7923 33.1185C26.9155 33.1735 26.096 33.5729 25.5125 34.2296C24.9291 34.8864 24.6289 35.7472 24.6776 36.6243C24.7374 37.6349 25.1805 38.5847 25.9165 39.2797C26.6526 39.9748 27.6261 40.3629 28.6385 40.3647H28.8731C30.1387 40.2878 31.3221 39.7125 32.1644 38.7649C33.0068 37.8173 33.4393 36.5746 33.3674 35.3087C33.281 33.778 32.5923 32.3436 31.4518 31.3189C30.3112 30.2943 28.8115 29.7627 27.2803 29.8403C26.1908 29.9218 25.1327 30.2426 24.1814 30.7797C23.2301 31.3168 22.4088 32.0571 21.7763 32.9479V23.3336C21.7763 23.2341 21.7763 23.1416 21.7763 23.0421C21.8891 21.6051 22.5087 20.255 23.5247 19.2326C24.5406 18.2101 25.8867 17.5819 27.3229 17.4599C27.8973 17.4252 28.4728 17.504 29.0167 17.6918C29.5605 17.8797 30.0621 18.1728 30.4926 18.5545C30.9232 18.9362 31.2743 19.3989 31.526 19.9164C31.7777 20.4338 31.9249 20.9957 31.9594 21.5701C32.0099 22.4609 31.7052 23.3354 31.112 24.0019C30.5188 24.6684 29.6856 25.0725 28.7949 25.1256C28.1216 25.1607 27.4616 24.9286 26.9583 24.4799C26.455 24.0313 26.1491 23.4021 26.1069 22.7292C26.0797 22.229 26.2513 21.7382 26.5843 21.3639C26.9173 20.9896 27.3847 20.7621 27.8847 20.731Z" fill="#0F172A"/>
<path d="M58.3568 45.0367C58.0068 44.7245 57.5986 44.4846 57.1556 44.3309C56.7126 44.1771 56.2435 44.1125 55.7754 44.1407C54.6165 44.2219 53.536 44.7557 52.7674 45.627C52.6041 45.8127 52.4544 46.01 52.3194 46.2172C51.935 45.624 51.4184 45.1278 50.8102 44.7676C50.202 44.4073 49.5186 44.1928 48.8136 44.1407C47.8749 44.0863 46.9529 44.4058 46.2492 45.0295C45.5455 45.6532 45.1176 46.5303 45.059 47.4687C45.0379 47.8633 45.0947 48.2582 45.2263 48.6308C45.3578 49.0034 45.5615 49.3464 45.8256 49.6403C46.0898 49.9341 46.4092 50.1731 46.7657 50.3434C47.1223 50.5138 47.5088 50.6123 47.9034 50.6332H48.0528C48.7002 50.6342 49.3235 50.3871 49.7944 49.9427C50.2653 49.4983 50.5479 48.8903 50.5843 48.2439C50.5894 48.1505 50.5761 48.057 50.5452 47.9687C50.5142 47.8805 50.4661 47.7992 50.4037 47.7296C50.3413 47.6599 50.2658 47.6032 50.1815 47.5627C50.0972 47.5222 50.0057 47.4988 49.9123 47.4936C49.8189 47.4885 49.7255 47.5018 49.6372 47.5328C49.549 47.5638 49.4677 47.6118 49.398 47.6742C49.3284 47.7366 49.2717 47.8122 49.2312 47.8965C49.1907 47.9808 49.1672 48.0722 49.1621 48.1656C49.1539 48.312 49.1169 48.4554 49.053 48.5873C48.9891 48.7193 48.8997 48.8373 48.7899 48.9345C48.6801 49.0317 48.5522 49.1062 48.4135 49.1537C48.2747 49.2011 48.128 49.2206 47.9816 49.211C47.7739 49.2019 47.5701 49.1517 47.3819 49.0632C47.1938 48.9748 47.025 48.8499 46.8855 48.6958C46.7459 48.5417 46.6383 48.3614 46.5689 48.1654C46.4995 47.9695 46.4697 47.7617 46.4812 47.5541C46.4966 47.2731 46.5674 46.998 46.6896 46.7446C46.8118 46.4911 46.9829 46.2643 47.1931 46.0773C47.4033 45.8902 47.6484 45.7466 47.9143 45.6547C48.1802 45.5627 48.4617 45.5243 48.7425 45.5416C49.5268 45.6023 50.2596 45.9554 50.7957 46.531C51.3318 47.1066 51.632 47.8626 51.6368 48.6492V63.0279C51.6368 63.2164 51.7117 63.3973 51.845 63.5307C51.9784 63.664 52.1593 63.739 52.3479 63.739C52.5365 63.739 52.7173 63.664 52.8507 63.5307C52.9841 63.3973 53.059 63.2164 53.059 63.0279V48.6492C53.0269 47.8625 53.3082 47.0953 53.8412 46.5159C54.3616 45.9271 55.0914 45.5648 55.875 45.5061C56.1564 45.4878 56.4386 45.5255 56.7054 45.617C56.9721 45.7085 57.2181 45.8519 57.429 46.0391C57.64 46.2262 57.8117 46.4533 57.9344 46.7073C58.057 46.9612 58.128 47.2369 58.1434 47.5185C58.1645 47.9331 58.0214 48.3393 57.7452 48.6492C57.6094 48.8048 57.4438 48.9315 57.2581 49.0219C57.0724 49.1123 56.8705 49.1645 56.6643 49.1754C56.3706 49.191 56.0823 49.0915 55.8608 48.8981C55.7502 48.8014 55.66 48.6837 55.5953 48.5519C55.5306 48.42 55.4927 48.2767 55.4839 48.1301C55.4784 48.0366 55.4546 47.9452 55.4137 47.861C55.3729 47.7768 55.3158 47.7014 55.2458 47.6393C55.1757 47.5772 55.0941 47.5296 55.0057 47.4991C54.9172 47.4686 54.8235 47.4559 54.7301 47.4616C54.5439 47.4744 54.3703 47.5599 54.2466 47.6996C54.1229 47.8392 54.059 48.022 54.0688 48.2083C54.0745 48.5506 54.1515 48.888 54.2947 49.1989C54.438 49.5099 54.6444 49.7876 54.9008 50.0145C55.3614 50.4287 55.9595 50.6568 56.579 50.6545H56.7354C57.1306 50.6355 57.5181 50.5382 57.8755 50.3685C58.233 50.1987 58.5532 49.9598 58.8177 49.6656C59.0822 49.3713 59.2857 49.0275 59.4165 48.6541C59.5474 48.2807 59.6029 47.8851 59.5799 47.4901C59.5485 47.0205 59.4242 46.5619 59.2143 46.1408C59.0043 45.7197 58.7128 45.3444 58.3568 45.0367Z" fill="#0F172A"/>
</g>
</g>
<defs>
<clipPath id="clip0_366_1518">
<rect width="64" height="64" fill="white"/>
</clipPath>
<clipPath id="clip1_366_1518">
<rect width="64" height="64" fill="white"/>
</clipPath>
</defs>
</svg>
