<svg width="119" height="119" viewBox="0 0 119 119" fill="none" xmlns="http://www.w3.org/2000/svg">
<path d="M93.1913 107.492C82.0046 115.37 68.4325 119.126 54.7873 118.119C41.1421 117.112 28.2682 111.405 18.3592 101.97C8.45012 92.5354 2.11899 79.9566 0.444542 66.3772C-1.22991 52.7978 1.85592 39.0579 9.17625 27.4986C16.4966 15.9393 27.5985 7.27582 40.5903 2.98433C53.5821 -1.30716 67.66 -0.961145 80.4254 3.96342C93.1907 8.88798 103.854 18.0864 110.597 29.9914C117.341 41.8963 119.748 55.7712 117.408 69.252L117.117 69.2014C119.445 55.7881 117.05 41.9825 110.34 30.1371C103.63 18.2917 93.0204 9.13923 80.3189 4.2393C67.6174 -0.660643 53.6099 -1.00493 40.683 3.26511C27.7562 7.53514 16.7098 16.1553 9.42606 27.6568C2.14234 39.1583 -0.928063 52.8295 0.738016 66.341C2.40409 79.8526 8.70357 92.3684 18.5631 101.756C28.4226 111.144 41.2321 116.822 54.8091 117.824C68.386 118.826 81.8903 115.089 93.021 107.251L93.1913 107.492Z" fill="white"/>
<g clip-path="url(#clip0_269_324)">
<path d="M43.4167 71.4074L67.0079 47.8162L45.8741 47.8162L45.8741 42.9014L75.3631 42.9014L75.3631 72.3904L70.4483 72.3904L70.4483 51.2566L46.857 74.8478L43.4167 71.4074Z" fill="white"/>
</g>
<defs>
<clipPath id="clip0_269_324">
<rect width="32.7656" height="32.7656" fill="white" transform="translate(75.5234 42.7568) rotate(90)"/>
</clipPath>
</defs>
</svg>
