<svg width="64" height="64" viewBox="0 0 64 64" fill="none" xmlns="http://www.w3.org/2000/svg">
<g clip-path="url(#clip0_366_1502)">
<g clip-path="url(#clip1_366_1502)">
<path d="M63.1714 24.3551C61.8178 24.3941 60.103 24.5661 58.1787 25.0684C55.955 25.6487 54.1732 26.4816 52.8799 27.2083C53.4797 22.2629 53.4913 20.8907 53.4913 20.8907C53.5154 18.0711 52.9438 15.9453 52.5744 14.5731C50.7373 7.74447 45.8319 2.76811 44.2188 1.22461C42.6239 2.62323 40.6388 4.65735 38.8181 7.44035C36.4669 11.0353 35.3261 14.4487 34.7421 16.8148C34.7007 16.7718 31.146 12.4841 27.3036 9.5801C24.6833 7.60035 22.38 6.60348 20.2726 5.70798C16.9183 4.28273 10.8971 2.24473 2.57512 2.14373C2.66962 10.488 4.71237 16.5237 6.13999 19.8838C7.03549 21.9908 8.03211 24.2944 10.012 26.9146C12.9161 30.7569 17.2037 34.3118 17.2467 34.3533C14.8806 34.9372 11.4671 36.0778 7.87199 38.4292C5.08899 40.2498 3.05487 42.2348 1.65625 43.8297C3.2 45.4429 8.17611 50.3484 15.0049 52.1853C16.3773 52.5545 18.5027 53.1261 21.3225 53.1024C21.3225 53.1024 22.695 53.0909 27.6401 52.491C26.9131 53.7841 26.0805 55.5663 25.5002 57.7896C24.9978 59.7141 24.826 61.4289 24.7868 62.7826C26.6948 62.8058 32.9259 62.6364 37.8298 58.0951C40.5301 55.5949 41.7727 52.746 42.3132 51.4719C43.3561 49.0145 43.6443 46.9214 43.9088 43.4735C47.3289 43.21 49.414 42.9197 51.8605 41.8815C53.1344 41.3409 55.9832 40.0982 58.4838 37.3979C63.0253 32.4941 63.1946 26.2634 63.1714 24.3551Z" fill="#A3E635"/>
<path d="M30.5252 58.6081C30.5663 57.1756 30.7485 55.361 31.28 53.3246C31.8938 50.9719 32.7751 49.086 33.5443 47.7178C28.3115 48.3525 26.8591 48.3648 26.8591 48.3648C23.8751 48.39 21.6262 47.785 20.1738 47.3943C13.7352 45.6623 8.85561 41.3545 6.71237 39.228C4.5155 40.8159 2.85262 42.4653 1.65625 43.8293C3.2 45.4425 8.17611 50.348 15.0049 52.1849C16.3774 52.5541 18.5027 53.1258 21.3225 53.102C21.3225 53.102 22.695 53.0905 27.6401 52.4906C26.9131 53.7838 26.0805 55.5659 25.5002 57.7892C24.9978 59.7137 24.826 61.4285 24.7868 62.7822C26.6948 62.8054 32.9259 62.636 37.8298 58.0947C38.1807 57.7699 38.5057 57.439 38.8091 57.1066C35.2001 58.5499 31.8612 58.6242 30.5252 58.6081Z" fill="white"/>
<path d="M58.1795 25.0682C55.9559 25.6485 54.1737 26.4811 52.8804 27.2078C53.4802 22.263 53.4918 20.8903 53.4918 20.8903C53.5155 18.0706 52.9444 15.945 52.5752 14.5727C50.738 7.74411 45.8327 2.76774 44.2192 1.22412C42.6243 2.62274 40.6396 4.65674 38.8184 7.43986C36.4673 11.035 35.3264 14.4485 34.7428 16.8143C34.7013 16.7713 31.1467 12.484 27.3043 9.57973C24.6841 7.59986 22.3803 6.60324 20.2733 5.70774C16.9197 4.28299 10.897 2.24874 2.57812 2.14674C2.67362 10.4877 4.7135 16.5242 6.14112 19.8835C6.37012 20.4241 6.60887 20.9782 6.86612 21.5465C6.72962 20.2836 6.63387 18.9531 6.61774 17.5227C6.61762 17.5231 6.61812 17.5236 6.61774 17.5227C13.4686 17.6068 18.4286 19.2821 21.1911 20.4556C22.9262 21.1932 24.823 22.014 26.9807 23.6445C27.9986 24.4136 28.9917 25.3007 29.8721 26.1515C31.3373 27.5672 33.7672 27.1257 34.6061 25.2688C35.0924 24.1921 35.7007 23.0488 36.4639 21.8822C37.1692 20.8038 37.9044 19.8621 38.6222 19.0471C39.8299 17.676 41.9701 17.7472 43.1377 19.1527C44.8064 21.1616 46.8208 24.1442 47.7923 27.7562C48.0968 28.8866 48.5672 30.637 48.5479 32.9592C48.5479 32.9592 48.5469 33.0753 48.5292 33.3671C48.4043 35.4381 50.3469 36.9446 52.3527 36.4139C52.371 36.4092 52.3892 36.4043 52.4075 36.3998C53.9929 35.9859 55.4045 35.8446 56.5197 35.8122C56.5279 36.4884 56.4873 37.8412 56.163 39.4649C56.9337 38.8919 57.7239 38.2194 58.4848 37.3978C63.026 32.4939 63.1954 26.2632 63.1722 24.3548C61.8187 24.394 60.104 24.5658 58.1795 25.0682Z" fill="white"/>
<path d="M10.8484 44.7866C10.6143 44.7773 10.3805 44.7006 10.1774 44.552C10.119 44.5092 9.78505 44.251 9.64967 43.8465C9.7213 44.0926 9.8643 44.3052 10.0377 44.445L9.99705 44.4131C9.46417 44.0008 9.36617 43.2347 9.77855 42.7016C10.1908 42.1687 10.9572 42.0708 11.49 42.4831C11.5153 42.5026 11.5395 42.5223 11.5624 42.542L11.6182 42.5828C12.162 42.981 12.2803 43.7443 11.8822 44.288C11.6333 44.6283 11.2407 44.8021 10.8484 44.7866Z" fill="white"/>
<path d="M22.0215 49.1534C21.9982 49.1524 21.9744 49.1509 21.9508 49.1486C18.5115 48.8143 16.0749 47.8871 13.0285 46.3986C12.423 46.1027 12.172 45.3721 12.4679 44.7668C12.7638 44.1613 13.4944 43.9104 14.0997 44.2061C16.9624 45.6047 19.099 46.4197 22.1869 46.7201C22.8576 46.7852 23.3484 47.3818 23.2831 48.0526C23.2203 48.6992 22.6629 49.1789 22.0215 49.1534Z" fill="white"/>
<path d="M17.8034 6.05836C18.4304 6.29373 19.0574 6.5451 19.7204 6.82685C19.8763 6.8931 20.0379 6.92448 20.1971 6.92448C20.6718 6.92448 21.1231 6.64561 21.3204 6.18136C21.5839 5.56111 21.2949 4.84461 20.6748 4.58123C19.9795 4.28586 19.3208 4.02173 18.6609 3.77398C18.0302 3.53711 17.3268 3.85661 17.0899 4.48748C16.853 5.11848 17.1725 5.82148 17.8034 6.05836Z" fill="#0F172A"/>
<path d="M47.0026 44.3825C48.8803 44.132 50.502 43.7463 52.26 43.0003C53.4392 42.5003 56.5709 41.172 59.3024 38.2225C63.7513 33.4184 64.3521 27.4602 64.3144 24.3359C64.3106 24.0088 64.1755 23.6971 63.9394 23.4707C63.7035 23.2442 63.3894 23.1246 63.0593 23.1312C61.2818 23.1823 59.51 23.4354 57.7933 23.8836C56.5902 24.1976 55.4129 24.6072 54.2737 25.1076C54.6208 21.9427 54.6335 20.9451 54.634 20.8964C54.6593 17.9069 54.043 15.6186 53.6749 14.2515C51.9102 7.69071 47.4727 2.71847 44.9847 0.338347C44.5276 -0.0987768 43.8124 -0.114152 43.3368 0.302723C41.1768 2.19722 39.2868 4.37234 37.7197 6.76784C36.1803 9.12196 34.9682 11.6582 34.1029 14.3318C32.6241 12.7196 30.3503 10.4068 27.9623 8.60183C27.4246 8.19559 26.6595 8.30184 26.2533 8.83946C25.8471 9.37708 25.9533 10.1422 26.491 10.5485C29.7552 13.016 32.8301 16.5332 33.6947 17.5526C33.7488 17.6164 33.7809 17.6508 33.7863 17.6563C34.0946 17.9764 34.5527 18.1036 34.9814 17.9883C35.4107 17.8732 35.7432 17.5338 35.8497 17.1024C36.6432 13.8873 37.9596 10.8597 39.7622 8.10346C41.0016 6.20896 42.4599 4.46359 44.1069 2.90247C46.4644 5.31884 49.8832 9.54721 51.3193 14.8856C51.6767 16.2132 52.217 18.2194 52.1945 20.8723C52.1944 20.8859 52.1688 22.3031 51.5922 27.0569C51.5367 27.5134 51.7428 27.9621 52.1248 28.2179C52.5068 28.4738 53.0002 28.4927 53.4012 28.2676C54.9792 27.3808 56.6645 26.7001 58.4103 26.2446C59.536 25.9506 60.6882 25.7506 61.8497 25.6461C61.6997 28.5608 60.8499 32.9609 57.5128 36.5647C55.137 39.13 52.3552 40.3098 51.3077 40.754C49.3933 41.5664 47.7189 41.8898 45.1537 42.1319C45.1644 41.9795 45.1752 41.8255 45.1862 41.6689C45.3253 39.6863 45.3466 35.9834 45.3399 33.2263C45.3358 31.5074 45.3206 30.0317 45.3118 29.3052C45.3058 28.7956 45.2996 28.3804 45.2947 28.0924C45.2922 27.9607 45.2903 27.8367 45.2834 27.7193C45.2834 27.7073 45.2834 27.7017 45.2834 27.6997C45.2834 27.7051 45.2833 27.7103 45.2831 27.7158C45.2564 27.2651 45.1596 26.9169 44.7186 26.6367C44.3407 26.3964 43.8611 26.3826 43.4701 26.6007C42.8369 26.9536 42.8413 27.5372 42.8439 27.8859C42.8449 28.0301 42.8473 28.2503 42.8511 28.5558C42.8517 28.6098 42.8558 28.6631 42.8633 28.7151C42.8956 31.0414 42.9471 36.9073 42.8143 40.2987L39.0006 36.5803C38.5181 36.1098 37.7456 36.1195 37.2754 36.6023C36.8049 37.0847 36.8149 37.8572 37.2974 38.3274L41.4879 42.4133C38.3391 42.5972 31.5725 42.5389 29.0315 42.5038C28.9795 42.4963 28.9263 42.4923 28.8723 42.4915C28.5668 42.4878 28.3466 42.4854 28.2025 42.4844C27.851 42.4827 27.27 42.4778 26.9172 43.1105C26.6991 43.5017 26.7128 43.981 26.9532 44.359C27.2335 44.8 27.5818 44.8968 28.0323 44.9235C28.0182 44.9239 28.016 44.9239 28.0362 44.9239C28.1535 44.9308 28.2775 44.9329 28.4091 44.9352C28.6972 44.94 29.1122 44.9461 29.6218 44.9523C30.3485 44.961 31.8239 44.9762 33.5429 44.9804C33.8253 44.981 34.1172 44.9815 34.4167 44.9815C37.0403 44.9815 40.2061 44.9516 41.9856 44.8268C42.1584 44.8148 42.3279 44.8027 42.4958 44.791C42.2534 47.3824 41.9308 49.0658 41.1139 50.9914C40.6696 52.0389 39.4889 54.8215 36.9244 57.1961C33.3207 60.5335 28.9208 61.3833 26.0061 61.5334C26.1105 60.3709 26.3108 59.2186 26.6045 58.094C27.0606 56.3473 27.7411 54.6618 28.6275 53.0849C28.8527 52.684 28.8336 52.1906 28.5778 51.8085C28.3221 51.4263 27.8726 51.2204 27.4168 51.2759C22.6628 51.8525 21.2461 51.8783 21.236 51.8784C18.5756 51.9021 16.5739 51.3604 15.2454 51.003C9.90786 49.5671 5.67925 46.1483 3.26262 43.7907C4.82387 42.1439 6.56899 40.6855 8.46387 39.4459C11.2197 37.6435 14.2476 36.3272 17.4627 35.5335C17.8936 35.4273 18.2328 35.0953 18.3483 34.6667C18.464 34.2379 18.3376 33.7804 18.0185 33.4718C18.013 33.4665 17.9776 33.4335 17.9121 33.3778C16.8925 32.5127 13.3742 29.4363 10.9092 26.1749C8.97924 23.6206 8.02687 21.3796 7.18637 19.4026C5.09537 14.4817 3.93937 9.06871 3.74387 3.29572C6.29824 3.38684 8.80824 3.67959 11.2222 4.16897C11.8825 4.30222 12.5267 3.87597 12.6605 3.21572C12.7944 2.55522 12.3675 1.91135 11.7072 1.77747C8.74549 1.1771 5.65075 0.857222 2.508 0.826972C2.18313 0.830347 1.86525 0.952347 1.63363 1.18422C1.40188 1.41597 1.27313 1.73097 1.27625 2.05872C1.33938 8.62683 2.572 14.7833 4.93987 20.3566C5.791 22.3593 6.85012 24.8514 8.96161 27.6458C10.7655 30.0327 13.0791 32.3073 14.6915 33.7865C12.0175 34.6518 9.48124 35.864 7.12724 37.4034C4.73125 38.9708 2.55613 40.8605 0.662129 43.0204C0.245254 43.4959 0.260504 44.2112 0.697879 44.6683C3.07812 47.1564 8.05099 51.594 14.6106 53.3586C15.9787 53.7269 18.2757 54.3428 21.2558 54.3178C21.3046 54.3173 22.302 54.3044 25.4668 53.9574C24.9667 55.0959 24.557 56.273 24.2428 57.4766C23.7952 59.1918 23.5421 60.9634 23.4905 62.7426C23.4811 63.0696 23.6032 63.3866 23.8298 63.6227C24.0565 63.8587 24.3683 63.994 24.6952 63.9979C24.7816 63.999 24.8697 63.9996 24.9603 63.9996C28.1476 63.9995 33.9107 63.3116 38.5817 58.9856C41.5302 56.2558 42.8592 53.123 43.3596 51.9438C44.2327 49.8859 44.6122 48.0144 44.8591 45.7003L59.7944 60.2623C60.0315 60.4936 60.3389 60.6087 60.6459 60.6087C60.9633 60.6087 61.2805 60.4856 61.5196 60.2403C61.9902 59.7579 61.9802 58.9854 61.4977 58.5151L47.0026 44.3825Z" fill="#0F172A"/>
<path d="M30.3043 31.0269C30.6217 31.0269 30.9389 30.9038 31.1781 30.6584C31.6486 30.1759 31.6386 29.4035 31.1561 28.9333L27.8021 25.663C27.3196 25.1924 26.5472 25.2023 26.0769 25.685C25.6064 26.1675 25.6164 26.9399 26.0989 27.4101L29.4529 30.6804C29.6898 30.9116 29.9972 31.0269 30.3043 31.0269Z" fill="#0F172A"/>
</g>
</g>
<defs>
<clipPath id="clip0_366_1502">
<rect width="64" height="64" fill="white"/>
</clipPath>
<clipPath id="clip1_366_1502">
<rect width="64.5332" height="64" fill="white"/>
</clipPath>
</defs>
</svg>
