<svg width="162" height="164" viewBox="0 0 162 164" fill="none" xmlns="http://www.w3.org/2000/svg">
<g clip-path="url(#clip0_269_383)">
<path d="M84.4141 0.71209L90.5391 1.27879C93.5068 1.55717 95.1454 3.2672 94.9156 5.78254C94.7657 7.34344 93.9464 8.42713 92.5575 8.87452C93.9664 9.48098 94.6359 10.684 94.476 12.3443C94.2362 14.9392 92.3477 16.2217 89.1602 15.9234L83.0352 15.3567L84.4141 0.702148V0.71209ZM86.8221 9.69971L86.5224 12.8513L89.2502 13.1098C90.4392 13.2192 91.1087 12.742 91.2086 11.6583C91.2985 10.6641 90.719 10.0775 89.5399 9.96815L86.8121 9.71959L86.8221 9.69971ZM87.3717 3.82395L87.0719 7.01535L89.6399 7.25396C90.7989 7.36333 91.4884 6.84634 91.5883 5.79248C91.6882 4.75851 91.1187 4.17193 89.9396 4.06256L87.3717 3.82395Z" fill="#84CC16"/>
<path d="M98.6328 17.4441L103.459 3.53516L108.865 5.39432C112.262 6.56748 113.621 8.8641 112.622 11.7374C111.992 13.5369 110.773 14.551 108.955 14.8094L109.494 21.1823L106.147 20.029L105.737 14.4416L103.379 13.6263L101.69 18.498L98.6328 17.4441ZM104.308 10.9619L106.636 11.7572C107.975 12.2146 108.985 11.8069 109.394 10.6238C109.804 9.46062 109.284 8.56584 107.925 8.09856L105.587 7.29325L104.318 10.9619H104.308Z" fill="#84CC16"/>
<path d="M112.547 22.5742L125.037 13.1094L127.685 14.8194L124.018 30.0009L121.14 28.1318L121.969 24.9702L117.973 22.3754L115.385 24.4035L112.557 22.5742H112.547ZM120.231 20.6256L122.679 22.2064L123.518 18.9951C123.658 18.488 123.818 17.9114 123.968 17.5833C123.728 17.8319 123.288 18.2096 122.849 18.5676L120.241 20.6256H120.231Z" fill="#84CC16"/>
<path d="M127.141 32.7351L138.092 22.8428L140.24 25.199L137.462 36.0856L144.437 29.7923L146.585 32.1485L135.634 42.0409L133.486 39.6846L136.253 28.808L129.299 35.0914L127.151 32.7351H127.141Z" fill="#84CC16"/>
<path d="M138.707 46.5346L151.886 39.8535L154.424 44.8146C156.393 48.6622 155.054 52.7086 151.137 54.697C147.29 56.6456 143.253 55.4128 141.335 51.6746L138.707 46.5346ZM150.687 44.0789L142.854 48.0458L143.873 50.0342C145.032 52.301 147.16 52.8975 149.598 51.6647C152.096 50.402 152.836 48.2645 151.617 45.8883L150.687 44.0789Z" fill="#84CC16"/>
<path d="M153.158 69.5213C154.997 69.2827 156.745 70.6448 156.985 72.484C157.225 74.3233 155.826 76.0234 154.028 76.2521C152.199 76.4807 150.5 75.1187 150.271 73.3391C150.031 71.5097 151.34 69.7599 153.168 69.5213H153.158Z" fill="#84CC16"/>
<path d="M155.887 91.0953C160.393 92.0796 162.731 95.5792 161.792 99.8642C161.002 103.453 158.365 105.591 155.027 105.332L155.757 102.012C157.295 101.902 158.385 100.848 158.764 99.1285C159.274 96.802 157.925 95.0224 155.177 94.4259C152.469 93.8393 150.451 94.9031 149.941 97.2097C149.552 98.9794 150.141 100.471 151.48 101.167L150.761 104.428C147.653 103.225 146.114 100.083 146.904 96.4839C147.853 92.1691 151.31 90.1011 155.877 91.0953H155.887Z" fill="#84CC16"/>
<path d="M157.113 114.25L155.614 117.104L147.62 112.958C145.971 112.103 144.603 112.53 143.753 114.141C142.904 115.762 143.364 117.163 144.972 117.998L152.966 122.144L151.467 124.998L143.284 120.752C140.166 119.132 139.257 115.97 140.975 112.689C142.684 109.428 145.782 108.375 148.919 109.995L157.102 114.24L157.113 114.25Z" fill="#84CC16"/>
<path d="M143.436 135.894C141.338 138.27 138.7 138.618 136.602 136.779L138.72 134.373C139.499 135.059 140.499 134.89 141.298 133.975C142.167 132.991 142.267 131.967 141.538 131.321C140.858 130.734 140.229 130.784 139.38 131.42L137.571 132.782C135.423 134.403 133.654 134.522 131.886 132.991C129.737 131.112 129.817 128.219 132.055 125.684C134.234 123.218 136.971 122.78 139.07 124.6L136.951 127.006C136.142 126.3 135.163 126.499 134.214 127.583C133.254 128.676 133.085 129.74 133.794 130.356C134.414 130.893 134.973 130.883 135.772 130.287L137.611 128.895C139.759 127.274 141.778 127.244 143.596 128.825C145.615 130.585 145.555 133.518 143.456 135.894H143.436Z" fill="#84CC16"/>
<path d="M134.852 144.186L125.479 151.036L123.701 148.63L127.078 146.155L120.094 136.7L122.702 134.791L129.686 144.246L133.063 141.77L134.842 144.176L134.852 144.186Z" fill="#84CC16"/>
<path d="M107.452 143.341C111.399 141.701 115.306 143.441 117.045 147.596C118.783 151.752 117.254 155.759 113.308 157.399C109.341 159.04 105.414 157.31 103.675 153.164C101.937 149.018 103.486 144.991 107.452 143.351V143.341ZM112.099 154.536C114.317 153.621 114.986 151.504 113.907 148.919C112.818 146.314 110.83 145.3 108.621 146.224C106.423 147.139 105.764 149.286 106.843 151.852C107.922 154.436 109.91 155.451 112.099 154.536Z" fill="#84CC16"/>
<path d="M96.3817 147.506L97.9204 162.141L94.8029 162.469L89.2874 152L86.04 163.374L82.8825 163.702L81.3438 149.067L84.4612 148.739L84.781 151.801C85.1107 154.963 85.1807 155.659 85.1407 156.762L87.4189 148.431L90.3665 148.122L94.3033 155.818C94.0136 154.744 93.8637 153.521 93.6938 151.92L93.2642 147.824L96.3817 147.496V147.506Z" fill="#84CC16"/>
<path d="M75.881 148.54L73.6029 163.076L64.3203 161.634L64.7799 158.691L70.8651 159.636L71.3147 156.782L65.929 155.947L66.3687 153.153L71.7543 153.988L72.224 150.986L66.1389 150.041L66.5985 147.099L75.881 148.54Z" fill="#84CC16"/>
<path d="M61.6116 145.776L56.046 159.407L50.7503 157.269C47.4229 155.927 46.1839 153.561 47.333 150.737C48.0524 148.968 49.3214 148.023 51.1599 147.864L50.9601 141.481L54.2375 142.804L54.3474 148.401L56.6655 149.336L58.614 144.563L61.6116 145.776ZM55.5964 151.95L53.3182 151.036C51.9993 150.509 50.9701 150.857 50.5005 152.02C50.0308 153.163 50.5005 154.078 51.8294 154.615L54.1276 155.54L55.5964 151.95Z" fill="#84CC16"/>
<path d="M36.8331 138.558C35.614 139.95 33.3958 140.09 31.9969 138.867C30.5981 137.654 30.5081 135.457 31.6972 134.094C32.9062 132.722 35.0945 132.613 36.4434 133.786C37.8423 134.999 38.0321 137.176 36.8231 138.548L36.8331 138.558Z" fill="#84CC16"/>
<path d="M20.3943 124.202C16.3676 126.439 12.2808 125.366 10.1326 121.528C8.334 118.317 8.88356 114.986 11.5514 112.978L13.2201 115.941C12.1409 117.044 12.021 118.545 12.8903 120.086C14.0594 122.164 16.2576 122.612 18.7157 121.25C21.1437 119.897 21.9331 117.77 20.774 115.712C19.8847 114.131 18.4459 113.405 16.9771 113.763L15.3384 110.85C18.4659 109.697 21.7133 111.039 23.5218 114.25C25.6801 118.108 24.4711 121.936 20.3943 124.212V124.202Z" fill="#84CC16"/>
<path d="M17.076 97.8259C18.0851 101.962 15.747 105.531 11.3605 106.595C6.97406 107.659 3.22707 105.531 2.21788 101.395C1.20869 97.2393 3.53682 93.6502 7.9233 92.5864C12.3098 91.5226 16.0668 93.6701 17.076 97.8259ZM5.23546 100.64C5.805 102.956 7.79341 103.95 10.5312 103.294C13.289 102.628 14.5979 100.838 14.0384 98.5218C13.4788 96.2252 11.4505 95.241 8.73265 95.8971C5.99485 96.5533 4.6859 98.3429 5.24545 100.649L5.23546 100.64Z" fill="#84CC16"/>
<path d="M14.7781 86.2339L0 85.7765L0.0999198 82.5951L9.70221 76.6895L0.299759 76.4012L0.399679 73.2197L15.1778 73.6771L15.0779 76.8585L5.49559 82.7641L14.8881 83.0524L14.7881 86.2339H14.7781Z" fill="#84CC16"/>
<path d="M16.0779 68.3083L1.94922 63.9438L2.89846 60.9015L13.7398 57.7499L4.74697 54.9661L5.69621 51.9238L19.8249 56.2884L18.8756 59.3307L8.05432 62.4823L17.0271 65.2561L16.0779 68.2984V68.3083Z" fill="#84CC16"/>
<path d="M22.3039 51.4063L9.66406 43.7608L14.5401 35.7773L17.0981 37.3283L13.9007 42.5578L16.3787 44.0591L19.2164 39.4161L21.6444 40.8876L18.8067 45.5305L21.4146 47.1113L24.6121 41.8818L27.17 43.4327L22.2939 51.4162L22.3039 51.4063Z" fill="#84CC16"/>
<path d="M24.451 34.6737C21.1937 31.4226 21.1337 27.2171 24.2612 24.1152C26.8791 21.5203 30.2564 21.1425 32.9242 23.1608L30.5062 25.5568C29.1473 24.8211 27.6685 25.1194 26.4095 26.3621C24.7108 28.0423 24.8707 30.2693 26.8591 32.2578C28.8175 34.2163 31.0957 34.4052 32.7844 32.735C34.0733 31.4624 34.3831 29.8816 33.6437 28.5693L36.0218 26.213C37.9802 28.9073 37.5605 32.3771 34.9426 34.9719C31.7952 38.0838 27.7584 37.9645 24.461 34.6637L24.451 34.6737Z" fill="#84CC16"/>
<path d="M34.1953 15.8242L44.1074 9.76953L45.6761 12.3147L42.099 14.5019L48.274 24.5037L45.5162 26.1938L39.3412 16.1921L35.7641 18.3794L34.1953 15.8342V15.8242Z" fill="#84CC16"/>
<path d="M62.2093 12.7116C61.7897 10.9121 62.9787 9.043 64.7873 8.63537C66.5958 8.21781 68.4343 9.43074 68.844 11.1905C69.2537 12.9701 68.0546 14.7994 66.306 15.1971C64.4975 15.6147 62.619 14.4912 62.2093 12.7116Z" fill="#84CC16"/>
</g>
<defs>
<clipPath id="clip0_269_383">
<rect width="162" height="163" fill="white" transform="translate(0 0.711914)"/>
</clipPath>
</defs>
</svg>
