<svg width="162" height="164" fill="none" xmlns="http://www.w3.org/2000/svg"><g clip-path="url('#clip0_269_383')" fill="#84CC16"><path d="m84.414.712 6.125.567c2.968.278 4.606 1.988 4.377 4.504-.15 1.56-.97 2.644-2.358 3.092 1.408.606 2.078 1.809 1.918 3.47-.24 2.594-2.128 3.877-5.316 3.578l-6.125-.566L84.415.702v.01ZM86.822 9.7l-.3 3.151 2.728.259c1.19.11 1.859-.368 1.959-1.452.09-.994-.49-1.58-1.67-1.69l-2.727-.248.01-.02Zm.55-5.876-.3 3.191 2.568.239c1.159.11 1.848-.408 1.948-1.462.1-1.033-.47-1.62-1.648-1.73l-2.568-.238ZM98.633 17.444l4.826-13.909 5.406 1.86c3.397 1.172 4.756 3.47 3.757 6.342-.63 1.8-1.849 2.814-3.667 3.072l.539 6.373-3.347-1.153-.41-5.587-2.358-.816-1.689 4.872-3.057-1.054Zm5.675-6.482 2.328.795c1.339.458 2.349.05 2.758-1.133.41-1.163-.11-2.058-1.469-2.525l-2.338-.806-1.269 3.669h-.01ZM112.547 22.574l12.49-9.465 2.648 1.71-3.667 15.182-2.878-1.87.829-3.16-3.996-2.596-2.588 2.029-2.828-1.83h-.01Zm7.684-1.948 2.448 1.58.839-3.21c.14-.508.3-1.085.45-1.413-.24.249-.68.627-1.119.985l-2.608 2.058h-.01ZM127.141 32.735l10.951-9.892 2.148 2.356-2.778 10.887 6.975-6.294 2.148 2.356-10.951 9.893-2.148-2.356 2.767-10.877-6.954 6.283-2.148-2.356h-.01ZM138.707 46.535l13.179-6.681 2.538 4.96c1.969 3.848.63 7.895-3.287 9.883-3.847 1.949-7.884.716-9.802-3.022l-2.628-5.14Zm11.98-2.456-7.833 3.967 1.019 1.988c1.159 2.267 3.287 2.864 5.725 1.63 2.498-1.262 3.238-3.4 2.019-5.776l-.93-1.81ZM153.158 69.521c1.839-.238 3.587 1.124 3.827 2.963.24 1.84-1.159 3.54-2.957 3.768-1.829.229-3.528-1.133-3.757-2.913-.24-1.83 1.069-3.58 2.897-3.818h-.01ZM155.887 91.095c4.506.985 6.844 4.484 5.905 8.77-.79 3.588-3.427 5.726-6.765 5.467l.73-3.32c1.538-.11 2.628-1.164 3.007-2.883.51-2.327-.839-4.107-3.587-4.703-2.708-.587-4.726.477-5.236 2.784-.389 1.77.2 3.261 1.539 3.957l-.719 3.261c-3.108-1.203-4.647-4.345-3.857-7.944.949-4.315 4.406-6.383 8.973-5.389h.01ZM157.113 114.25l-1.499 2.854-7.994-4.146c-1.649-.855-3.017-.428-3.867 1.183-.849 1.621-.389 3.022 1.219 3.857l7.994 4.146-1.499 2.854-8.183-4.246c-3.118-1.62-4.027-4.782-2.309-8.063 1.709-3.261 4.807-4.314 7.944-2.694l8.183 4.245.011.01ZM143.436 135.894c-2.098 2.376-4.736 2.724-6.834.885l2.118-2.406c.779.686 1.779.517 2.578-.398.869-.984.969-2.008.24-2.654-.68-.587-1.309-.537-2.158.099l-1.809 1.362c-2.148 1.621-3.917 1.74-5.685.209-2.149-1.879-2.069-4.772.169-7.307 2.179-2.466 4.916-2.904 7.015-1.084l-2.119 2.406c-.809-.706-1.788-.507-2.737.577-.96 1.093-1.129 2.157-.42 2.773.62.537 1.179.527 1.978-.069l1.839-1.392c2.148-1.621 4.167-1.651 5.985-.07 2.019 1.76 1.959 4.693-.14 7.069h-.02ZM134.852 144.186l-9.373 6.85-1.778-2.406 3.377-2.475-6.984-9.455 2.608-1.909 6.984 9.455 3.377-2.476 1.779 2.406.01.01ZM107.452 143.341c3.947-1.64 7.854.1 9.593 4.255 1.738 4.156.209 8.163-3.737 9.803-3.967 1.641-7.894-.089-9.633-4.235-1.738-4.146-.189-8.173 3.777-9.813v-.01Zm4.647 11.195c2.218-.915 2.887-3.032 1.808-5.617-1.089-2.605-3.077-3.619-5.286-2.695-2.198.915-2.857 3.062-1.778 5.628 1.079 2.584 3.067 3.599 5.256 2.684ZM96.382 147.506l1.538 14.635-3.117.328L89.287 152l-3.247 11.374-3.158.328-1.538-14.635 3.117-.328.32 3.062c.33 3.162.4 3.858.36 4.961l2.278-8.331 2.948-.309 3.936 7.696c-.29-1.074-.44-2.297-.61-3.898l-.429-4.096 3.118-.328v.01ZM75.881 148.54l-2.278 14.536-9.283-1.442.46-2.943 6.085.945.45-2.854-5.386-.835.44-2.794 5.385.835.47-3.002-6.085-.945.46-2.942 9.282 1.441ZM61.612 145.776l-5.566 13.631-5.296-2.138c-3.327-1.342-4.566-3.708-3.417-6.532.72-1.769 1.988-2.714 3.827-2.873l-.2-6.383 3.277 1.323.11 5.597 2.319.935 1.948-4.773 2.998 1.213Zm-6.016 6.174-2.278-.914c-1.319-.527-2.348-.179-2.817.984-.47 1.143 0 2.058 1.328 2.595l2.299.925 1.468-3.59ZM36.833 138.558c-1.219 1.392-3.437 1.532-4.836.309-1.399-1.213-1.489-3.41-.3-4.773 1.21-1.372 3.397-1.481 4.746-.308 1.4 1.213 1.59 3.39.38 4.762l.01.01ZM20.394 124.202c-4.026 2.237-8.113 1.164-10.261-2.674-1.799-3.211-1.25-6.542 1.418-8.55l1.67 2.963c-1.08 1.103-1.2 2.604-.33 4.145 1.168 2.078 3.367 2.526 5.825 1.164 2.428-1.353 3.217-3.48 2.058-5.538-.89-1.581-2.328-2.307-3.797-1.949l-1.639-2.913c3.128-1.153 6.375.189 8.184 3.4 2.158 3.858.95 7.686-3.128 9.962v-.01ZM17.076 97.826c1.01 4.136-1.329 7.705-5.716 8.769-4.386 1.064-8.133-1.064-9.142-5.2-1.01-4.156 1.319-7.745 5.705-8.809 4.387-1.063 8.144 1.084 9.153 5.24Zm-11.84 2.814c.569 2.316 2.557 3.31 5.295 2.654 2.758-.666 4.067-2.456 3.507-4.772-.56-2.297-2.588-3.281-5.305-2.625-2.738.656-4.047 2.446-3.488 4.752l-.01-.009ZM14.778 86.234 0 85.777l.1-3.182 9.602-5.906L.3 76.401l.1-3.181 14.778.457-.1 3.181-9.582 5.906 9.392.288-.1 3.182h-.01ZM16.078 68.308 1.949 63.944 2.9 60.9l10.84-3.151-8.992-2.784.95-3.042 14.128 4.364-.95 3.043-10.82 3.151 8.972 2.774-.95 3.042v.01ZM22.304 51.406l-12.64-7.645 4.876-7.984 2.558 1.551-3.197 5.23 2.478 1.501 2.837-4.643 2.428 1.472-2.837 4.643 2.608 1.58 3.197-5.23 2.558 1.552-4.876 7.983.01-.01ZM24.451 34.674c-3.257-3.251-3.317-7.457-.19-10.559 2.618-2.595 5.995-2.973 8.663-.954l-2.418 2.396c-1.359-.736-2.837-.438-4.096.805-1.7 1.68-1.54 3.907.45 5.896 1.957 1.958 4.236 2.147 5.924.477 1.29-1.273 1.6-2.853.86-4.166l2.378-2.356c1.958 2.694 1.538 6.164-1.08 8.759-3.147 3.112-7.184 2.992-10.481-.308l-.01.01ZM34.195 15.824l9.912-6.054 1.57 2.545-3.578 2.187 6.175 10.002-2.758 1.69-6.175-10.002-3.577 2.187-1.569-2.545v-.01ZM62.21 12.712c-.42-1.8.769-3.669 2.577-4.077 1.809-.417 3.647.796 4.057 2.556.41 1.78-.79 3.608-2.538 4.006-1.808.418-3.687-.706-4.097-2.485Z"/></g><defs><clipPath id="clip0_269_383"><path fill="#fff" transform="translate(0 .712)" d="M0 0h162v163H0z"/></clipPath></defs></svg>