<svg width="64" height="64" fill="none" xmlns="http://www.w3.org/2000/svg"><path d="M31.656 37.334 52.02 63.328h5.894c0-14.268-11.73-25.852-26.258-25.992Z" fill="#ECFCCB"/><path d="M31.39 1.71v29.846c8.41 0 15.228-6.682 15.228-14.923S39.8 1.71 31.391 1.71Z" fill="#E2E8F0"/><path d="M31.66 37.334c11.27.181 20.364 11.748 20.364 25.993H4.867c0-14.357 11.876-25.994 26.526-25.994.088 0 .178 0 .267.002Z" fill="#A3E635"/><path d="M31.392 1.71c5.154 0 9.333 6.682 9.333 14.923 0 8.242-4.18 14.923-9.333 14.923-8.41 0-15.228-6.682-15.228-14.923S22.982 1.71 31.392 1.71Z" fill="#fff"/><path d="M31.393 33c9.209 0 16.701-7.342 16.701-16.367 0-9.025-7.492-16.367-16.701-16.367-9.21 0-16.702 7.342-16.702 16.367C14.691 25.658 22.184 33 31.393 33Zm0-29.846c7.584 0 13.754 6.047 13.754 13.479 0 7.432-6.17 13.479-13.754 13.479s-13.754-6.047-13.754-13.479c0-7.432 6.17-13.479 13.754-13.479Z" fill="#0F172A"/><path d="M31.39 22.382c1.93 0 3.669-1.15 4.326-2.86a1.436 1.436 0 0 0-.86-1.86c-.76-.281-1.611.096-1.898.842-.227.592-.858.99-1.568.99-.71 0-1.34-.398-1.568-.99-.287-.746-1.136-1.123-1.898-.843a1.436 1.436 0 0 0-.86 1.86c.656 1.712 2.395 2.861 4.326 2.861ZM5.195 58.958a1.468 1.468 0 0 0 1.763-1.089c2.603-11.241 12.65-19.092 24.431-19.092s21.828 7.85 24.431 19.092c.18.778.97 1.264 1.764 1.09a1.444 1.444 0 0 0 1.11-1.73c-1.382-5.967-4.832-11.384-9.716-15.252-4.956-3.926-11.203-6.089-17.589-6.089-6.386 0-12.632 2.163-17.59 6.09-4.883 3.868-8.333 9.285-9.715 15.252a1.444 1.444 0 0 0 1.111 1.728Z" fill="#0F172A"/></svg>