<svg width="64" height="64" viewBox="0 0 64 64" fill="none" xmlns="http://www.w3.org/2000/svg">
<path d="M31.6562 37.3345L52.0199 63.327H57.9145C57.9145 49.0589 46.1843 37.475 31.6562 37.3345Z" fill="#ECFCCB"></path>
<path d="M31.3906 1.71045V31.556C39.8003 31.556 46.6183 24.8744 46.6183 16.6331C46.6183 8.39185 39.8003 1.71045 31.3906 1.71045Z" fill="#E2E8F0"></path>
<path d="M31.6601 37.3345C42.9305 37.5155 52.0238 49.0821 52.0238 63.327H4.86719C4.86719 48.9703 16.7428 37.3325 31.3928 37.3325C31.4812 37.3325 31.5715 37.3325 31.6601 37.3345Z" fill="#A3E635"></path>
<path d="M31.3918 1.71045C36.5456 1.71045 40.7249 8.39202 40.7249 16.6333C40.7249 24.8746 36.5456 31.556 31.3918 31.556C22.9821 31.556 16.1641 24.8744 16.1641 16.6331C16.1641 8.39185 22.9821 1.71045 31.3918 1.71045Z" fill="white"></path>
<path d="M31.3927 32.9998C40.6018 32.9998 48.0941 25.6577 48.0941 16.6329C48.0941 7.60805 40.6018 0.266113 31.3927 0.266113C22.1837 0.266113 14.6914 7.60822 14.6914 16.6331C14.6914 25.6579 22.1837 32.9998 31.3927 32.9998ZM31.3927 3.15432C38.9766 3.15432 45.1467 9.2008 45.1467 16.6329C45.1467 24.065 38.9766 30.1116 31.3927 30.1116C23.8088 30.1116 17.6388 24.0651 17.6388 16.6331C17.6388 9.20098 23.8088 3.15432 31.3927 3.15432Z" fill="#0F172A"></path>
<path d="M31.3896 22.3823C33.32 22.3823 35.0588 21.2325 35.7162 19.5215C36.0028 18.7751 35.6177 17.9422 34.8562 17.6611C34.0954 17.3806 33.2445 17.7575 32.9579 18.5039C32.7306 19.0962 32.1002 19.4943 31.3899 19.4943C30.6795 19.4943 30.0493 19.0964 29.822 18.5043C29.5354 17.7578 28.6857 17.381 27.9238 17.6613C27.1621 17.9422 26.7768 18.7751 27.0636 19.5215C27.7202 21.2325 29.4589 22.3823 31.3896 22.3823Z" fill="#0F172A"></path>
<path d="M5.195 58.9584C5.30484 58.9827 5.41451 58.9947 5.52255 58.9947C6.1955 58.9947 6.80316 58.5401 6.95846 57.8698C9.56134 46.6279 19.6078 38.7766 31.3893 38.7766C43.1705 38.7766 53.217 46.6277 55.8202 57.8694C56.0004 58.6472 56.7899 59.1331 57.5837 58.9581C58.3773 58.7815 58.8746 58.0078 58.6946 57.2299C57.3124 51.2623 53.8618 45.8452 48.9784 41.9767C44.0215 38.0506 37.775 35.8882 31.3891 35.8882C25.0032 35.8882 18.7568 38.0506 13.7998 41.9771C8.91616 45.8456 5.46555 51.2628 4.08357 57.2305C3.90393 58.0084 4.4012 58.7819 5.195 58.9584Z" fill="#0F172A"></path>
</svg>
